<?xml version="1.0" encoding="utf-8"?>
<!-- Generator: Adobe Illustrator 15.0.0, SVG Export Plug-In  -->
<!DOCTYPE svg PUBLIC "-//W3C//DTD SVG 1.0//EN" "http://www.w3.org/TR/2001/REC-SVG-20010904/DTD/svg10.dtd" [
	<!ENTITY ns_flows "http://ns.adobe.com/Flows/1.0/">
]>
<svg version="1.0"
	 xmlns="http://www.w3.org/2000/svg" xmlns:xlink="http://www.w3.org/1999/xlink" xmlns:a="http://ns.adobe.com/AdobeSVGViewerExtensions/3.0/"
	 x="0px" y="0px" width="15px" height="15px" viewBox="-0.5 -1.8105469 15 15" enable-background="new -0.5 -1.8105469 15 15"
	 xml:space="preserve">
<defs>
</defs>
<path fill="#FFFFFF" d="M14,1.3476563c-0.515625,0.2275391-1.0693359,0.3837891-1.6503906,0.4511719
	c0.5947266-0.3564453,1.0478516-0.9179688,1.2646484-1.5888672c-0.5576172,0.3300781-1.1708984,0.5683594-1.8242188,0.6962891
	C11.265625,0.3486328,10.5195313,0,9.6923828,0C8.1064453,0,6.8193359,1.2851563,6.8193359,2.8710938
	c0,0.2265625,0.0273438,0.4462891,0.0751953,0.65625C4.5087891,3.4072266,2.3925781,2.2626953,0.9755859,0.5253906
	C0.7275391,0.9511719,0.5869141,1.4423828,0.5869141,1.9707031c0,0.9951172,0.5068359,1.8740234,1.2773438,2.3896484
	C1.3935547,4.34375,0.9511719,4.2167969,0.5634766,4C0.5625,4.0136719,0.5625,4.0253906,0.5625,4.0361328
	c0,1.3925781,0.9912109,2.5537109,2.3037109,2.8183594C2.6259766,6.9179688,2.3730469,6.9541016,2.1103516,6.9541016
	c-0.1855469,0-0.3652344-0.0175781-0.5390625-0.0527344c0.3642578,1.1435547,1.4248047,1.9746094,2.6806641,1.9960938
	c-0.9824219,0.7695313-2.2197266,1.2285156-3.5664063,1.2285156c-0.2314453,0-0.4589844-0.0146484-0.6855469-0.0400391
	c1.2714844,0.8154297,2.78125,1.2929688,4.4033203,1.2929688c5.2822266,0,8.171875-4.3789063,8.171875-8.171875
	c0-0.1259766-0.0029297-0.2480469-0.0087891-0.3740234C13.1279297,2.4277344,13.6162109,1.9228516,14,1.3476563z"/>
</svg>
